# xmcd
# Copyright (C) 1995-1998 Ti Kan
#
# Track frame offsets:
#       150
#       16094
#       34156
#       49338
#       72345
#       87422
#       104191
#       120565
#       145010
#
# Disc length: 2154 seconds
#
# Revision: 0
# Processed by: cddbd v1.5.2PL0 Copyright (c) Steve Scherf et al.
# Submitted via: CD-Import v1.0
#
DISCID=7c086809
DTITLE=Cajun Dance Party - The Colourful Life
DYEAR=2008
DGENRE=
TTITLE0=Colourful Life
TTITLE1=The Race
TTITLE2=Time Falls
TTITLE3=The Next Untouchable
TTITLE4=No Joanna
TTITLE5=Amylase
TTITLE6=The Firework
TTITLE7=Buttercups
TTITLE8=The Hill, The Views and The Lights
EXTD=
EXTT0=
EXTT1=
EXTT2=
EXTT3=
EXTT4=
EXTT5=
EXTT6=
EXTT7=
EXTT8=
PLAYORDER=
